<mxfile host="app.diagrams.net" agent="Mozilla/5.0 (Windows NT 10.0; Win64; x64; rv:128.0) Gecko/20100101 Firefox/128.0" version="24.7.5">
  <diagram name="Page-1" id="c9db0220-8083-56f3-ca83-edcdcd058819">
    <mxGraphModel dx="5194" dy="2880" grid="1" gridSize="10" guides="1" tooltips="1" connect="1" arrows="1" fold="1" page="1" pageScale="1.5" pageWidth="826" pageHeight="1169" background="none" math="0" shadow="0">
      <root>
        <mxCell id="0" style=";html=1;" />
        <mxCell id="1" style=";html=1;" parent="0" />
        <mxCell id="3d76a8aef4d5c911-1" value="" style="html=1;shadow=0;dashed=0;shape=mxgraph.bootstrap.rect;fillColor=#222222;strokeColor=none;whiteSpace=wrap;rounded=0;fontSize=12;fontColor=#000000;align=center;" parent="1" vertex="1">
          <mxGeometry x="40" y="70" width="1150" height="40" as="geometry" />
        </mxCell>
        <mxCell id="3d76a8aef4d5c911-2" value="Transfer Money" style="html=1;shadow=0;dashed=0;fillColor=none;strokeColor=none;shape=mxgraph.bootstrap.rect;fontColor=#999999;fontSize=14;whiteSpace=wrap;" parent="3d76a8aef4d5c911-1" vertex="1">
          <mxGeometry width="140" height="40" as="geometry" />
        </mxCell>
        <mxCell id="3d76a8aef4d5c911-3" value="My Accounts" style="html=1;shadow=0;dashed=0;shape=mxgraph.bootstrap.rect;fillColor=#000000;strokeColor=none;fontColor=#ffffff;spacingRight=0;whiteSpace=wrap;align=center;" parent="3d76a8aef4d5c911-1" vertex="1">
          <mxGeometry x="140" width="110" height="40" as="geometry" />
        </mxCell>
        <mxCell id="3d76a8aef4d5c911-5" value="Messages" style="html=1;shadow=0;dashed=0;fillColor=none;strokeColor=none;shape=mxgraph.bootstrap.rect;fontColor=#999999;spacingRight=0;whiteSpace=wrap;" parent="3d76a8aef4d5c911-1" vertex="1">
          <mxGeometry x="250" width="130.01" height="40" as="geometry" />
        </mxCell>
        <mxCell id="3d76a8aef4d5c911-7" value="Offers" style="html=1;shadow=0;dashed=0;fillColor=none;strokeColor=none;shape=mxgraph.bootstrap.rect;fontColor=#999999;whiteSpace=wrap;" parent="3d76a8aef4d5c911-1" vertex="1">
          <mxGeometry x="380.01" width="79.99" height="40" as="geometry" />
        </mxCell>
        <mxCell id="3d76a8aef4d5c911-8" value="Investments" style="html=1;shadow=0;dashed=0;fillColor=none;strokeColor=none;shape=mxgraph.bootstrap.rect;fontColor=#999999;whiteSpace=wrap;" parent="3d76a8aef4d5c911-1" vertex="1">
          <mxGeometry x="460" width="120" height="40" as="geometry" />
        </mxCell>
        <mxCell id="3d76a8aef4d5c911-10" value="Log Out" style="html=1;shadow=0;dashed=0;fillColor=none;strokeColor=none;shape=mxgraph.bootstrap.rect;fontColor=#999999;whiteSpace=wrap;" parent="3d76a8aef4d5c911-1" vertex="1">
          <mxGeometry x="1049.375" width="100.625" height="40" as="geometry" />
        </mxCell>
        <mxCell id="Jn0wVcpK-2ly_PUziBu9-22" value="Replace Card" style="html=1;shadow=0;dashed=0;fillColor=none;strokeColor=none;shape=mxgraph.bootstrap.rect;fontColor=#999999;whiteSpace=wrap;" vertex="1" parent="3d76a8aef4d5c911-1">
          <mxGeometry x="580" width="120" height="40" as="geometry" />
        </mxCell>
        <mxCell id="Jn0wVcpK-2ly_PUziBu9-39" value="Local Branches" style="html=1;shadow=0;dashed=0;fillColor=none;strokeColor=none;shape=mxgraph.bootstrap.rect;fontColor=#999999;whiteSpace=wrap;" vertex="1" parent="3d76a8aef4d5c911-1">
          <mxGeometry x="700" width="130" height="40" as="geometry" />
        </mxCell>
        <mxCell id="3d76a8aef4d5c911-11" value="" style="html=1;shadow=0;dashed=0;shape=mxgraph.bootstrap.rrect;rSize=5;strokeColor=#dddddd;rounded=0;fontSize=12;align=center;container=0;" parent="1" vertex="1">
          <mxGeometry x="860" y="150" width="330" height="360" as="geometry" />
        </mxCell>
        <mxCell id="3d76a8aef4d5c911-54" value="" style="html=1;shadow=0;dashed=0;shape=mxgraph.bootstrap.rrect;rSize=5;strokeColor=#dddddd;rounded=0;fontSize=12;align=center;container=0;" parent="1" vertex="1">
          <mxGeometry x="859" y="530" width="330" height="370" as="geometry" />
        </mxCell>
        <mxCell id="3RXiinGD9AzOw28SL5Pv-1" value="&lt;font color=&quot;#cc0000&quot; size=&quot;1&quot; face=&quot;Verdana&quot;&gt;&lt;b&gt;&lt;span style=&quot;line-height: 107%; font-size: 36px;&quot; lang=&quot;EN-US&quot;&gt;CA&lt;/span&gt;&lt;/b&gt;&lt;/font&gt;&lt;font color=&quot;#000066&quot; size=&quot;1&quot; face=&quot;Verdana&quot;&gt;&lt;b&gt;&lt;span style=&quot;line-height: 107%; font-size: 36px;&quot; lang=&quot;EN-US&quot;&gt; Bank&lt;/span&gt;&lt;/b&gt;&lt;/font&gt;&lt;font color=&quot;#000066&quot; size=&quot;1&quot; face=&quot;Verdana&quot;&gt;&lt;b&gt;&lt;span style=&quot;line-height: 107%; font-size: 36px;&quot; lang=&quot;EN-US&quot;&gt;&amp;nbsp;&lt;/span&gt;&lt;/b&gt;&lt;/font&gt;" style="text;html=1;align=center;verticalAlign=middle;whiteSpace=wrap;rounded=0;fillColor=#f5f5f5;fontColor=#333333;strokeColor=#666666;" parent="1" vertex="1">
          <mxGeometry x="40" y="20" width="1150" height="50" as="geometry" />
        </mxCell>
        <mxCell id="3RXiinGD9AzOw28SL5Pv-2" value="&lt;font style=&quot;font-size: 14px;&quot; color=&quot;#000066&quot; face=&quot;Verdana&quot;&gt;&lt;b&gt;Bank Accounts&lt;br&gt;&lt;/b&gt;&lt;/font&gt;" style="text;html=1;align=left;verticalAlign=middle;whiteSpace=wrap;rounded=0;" parent="1" vertex="1">
          <mxGeometry x="40" y="200" width="480" height="40" as="geometry" />
        </mxCell>
        <mxCell id="3RXiinGD9AzOw28SL5Pv-105" value="&lt;font color=&quot;#000066&quot; style=&quot;font-size: 18px;&quot; face=&quot;Verdana&quot;&gt;&lt;b&gt;Accounts Summary&lt;br&gt;&lt;/b&gt;&lt;/font&gt;" style="text;html=1;align=center;verticalAlign=middle;whiteSpace=wrap;rounded=0;fillColor=#f5f5f5;strokeColor=#666666;fontColor=#333333;" parent="1" vertex="1">
          <mxGeometry x="40" y="150" width="800" height="50" as="geometry" />
        </mxCell>
        <mxCell id="Jn0wVcpK-2ly_PUziBu9-1" value="&lt;div&gt;&lt;font size=&quot;1&quot; color=&quot;#cc0000&quot; face=&quot;Verdana&quot;&gt;&lt;b style=&quot;font-size: 14px;&quot;&gt;CA ARC Banking&lt;/b&gt;&lt;/font&gt;&lt;/div&gt;&lt;div&gt;Chequeing 01234-5678901&lt;/div&gt;" style="text;html=1;align=left;verticalAlign=middle;whiteSpace=wrap;rounded=0;strokeColor=none;dashed=1;" vertex="1" parent="1">
          <mxGeometry x="40" y="240" width="520" height="60" as="geometry" />
        </mxCell>
        <mxCell id="Jn0wVcpK-2ly_PUziBu9-2" value="&lt;div&gt;&lt;font size=&quot;1&quot; color=&quot;#cc0000&quot; face=&quot;Verdana&quot;&gt;&lt;b style=&quot;font-size: 14px;&quot;&gt;CA ARC Visa&lt;/b&gt;&lt;/font&gt;&lt;/div&gt;&lt;div&gt;Visa 1234 **** **** 5678&lt;br&gt;&lt;/div&gt;" style="text;html=1;align=left;verticalAlign=middle;whiteSpace=wrap;rounded=0;strokeColor=none;dashed=1;" vertex="1" parent="1">
          <mxGeometry x="40" y="440" width="450" height="60" as="geometry" />
        </mxCell>
        <mxCell id="Jn0wVcpK-2ly_PUziBu9-3" value="&lt;font size=&quot;1&quot; color=&quot;#000066&quot; face=&quot;Verdana&quot;&gt;&lt;b style=&quot;font-size: 18px;&quot;&gt;$1,234.56&lt;/b&gt;&lt;/font&gt; CAD" style="text;html=1;align=left;verticalAlign=middle;whiteSpace=wrap;rounded=0;" vertex="1" parent="1">
          <mxGeometry x="560" y="250" width="150" height="40" as="geometry" />
        </mxCell>
        <mxCell id="Jn0wVcpK-2ly_PUziBu9-4" value="&lt;div&gt;&lt;font size=&quot;1&quot; color=&quot;#cc0000&quot; face=&quot;Verdana&quot;&gt;&lt;b style=&quot;font-size: 14px;&quot;&gt;CA Arial Banking&lt;br&gt;&lt;/b&gt;&lt;/font&gt;&lt;/div&gt;&lt;div&gt;Chequeing 23456-7890123&lt;/div&gt;" style="text;html=1;align=left;verticalAlign=middle;whiteSpace=wrap;rounded=0;strokeColor=none;dashed=1;" vertex="1" parent="1">
          <mxGeometry x="40" y="300" width="520" height="60" as="geometry" />
        </mxCell>
        <mxCell id="Jn0wVcpK-2ly_PUziBu9-5" value="&lt;font size=&quot;1&quot; color=&quot;#000066&quot; face=&quot;Verdana&quot;&gt;&lt;b style=&quot;font-size: 18px;&quot;&gt;$&amp;nbsp;&amp;nbsp; 123.45&lt;/b&gt;&lt;/font&gt; CAD" style="text;html=1;align=left;verticalAlign=middle;whiteSpace=wrap;rounded=0;" vertex="1" parent="1">
          <mxGeometry x="560" y="310" width="150" height="40" as="geometry" />
        </mxCell>
        <mxCell id="Jn0wVcpK-2ly_PUziBu9-10" value="" style="fillColor=#000066;strokeColor=none;rounded=1;arcSize=50;sketch=0;hachureGap=4;pointerEvents=0;fontFamily=Architects Daughter;fontSource=https%3A%2F%2Ffonts.googleapis.com%2Fcss%3Ffamily%3DArchitects%2BDaughter;fontSize=20;container=0;" vertex="1" parent="1">
          <mxGeometry x="722" y="255" width="60" height="30" as="geometry" />
        </mxCell>
        <mxCell id="Jn0wVcpK-2ly_PUziBu9-14" value="" style="fillColor=#CC0000;strokeColor=none;rounded=1;arcSize=50;sketch=0;hachureGap=4;pointerEvents=0;fontFamily=Architects Daughter;fontSource=https%3A%2F%2Ffonts.googleapis.com%2Fcss%3Ffamily%3DArchitects%2BDaughter;fontSize=20;container=0;" vertex="1" parent="1">
          <mxGeometry x="722" y="315" width="60" height="30" as="geometry" />
        </mxCell>
        <mxCell id="Jn0wVcpK-2ly_PUziBu9-15" value="" style="shape=ellipse;strokeColor=none;fillColor=#ffffff;sketch=0;hachureGap=4;pointerEvents=0;fontFamily=Architects Daughter;fontSource=https%3A%2F%2Ffonts.googleapis.com%2Fcss%3Ffamily%3DArchitects%2BDaughter;fontSize=20;" vertex="1" parent="1">
          <mxGeometry x="727" y="319" width="22" height="22" as="geometry">
            <mxPoint x="-54" y="-11" as="offset" />
          </mxGeometry>
        </mxCell>
        <mxCell id="Jn0wVcpK-2ly_PUziBu9-11" value="" style="shape=ellipse;strokeColor=none;fillColor=#ffffff;sketch=0;hachureGap=4;pointerEvents=0;fontFamily=Architects Daughter;fontSource=https%3A%2F%2Ffonts.googleapis.com%2Fcss%3Ffamily%3DArchitects%2BDaughter;fontSize=20;" vertex="1" parent="1">
          <mxGeometry x="755" y="259" width="22" height="22" as="geometry">
            <mxPoint x="-27" y="-11" as="offset" />
          </mxGeometry>
        </mxCell>
        <mxCell id="Jn0wVcpK-2ly_PUziBu9-17" value="" style="sketch=0;outlineConnect=0;fontColor=#232F3E;gradientColor=none;fillColor=#000066;strokeColor=none;dashed=0;verticalLabelPosition=bottom;verticalAlign=top;align=center;html=1;fontSize=12;fontStyle=0;aspect=fixed;pointerEvents=1;shape=mxgraph.aws4.gear;" vertex="1" parent="1">
          <mxGeometry x="810" y="255" width="30" height="30" as="geometry" />
        </mxCell>
        <mxCell id="Jn0wVcpK-2ly_PUziBu9-18" value="" style="sketch=0;outlineConnect=0;fontColor=#232F3E;gradientColor=none;fillColor=#000066;strokeColor=none;dashed=0;verticalLabelPosition=bottom;verticalAlign=top;align=center;html=1;fontSize=12;fontStyle=0;aspect=fixed;pointerEvents=1;shape=mxgraph.aws4.gear;" vertex="1" parent="1">
          <mxGeometry x="810" y="315" width="30" height="30" as="geometry" />
        </mxCell>
        <mxCell id="Jn0wVcpK-2ly_PUziBu9-21" value="&lt;font style=&quot;font-size: 14px;&quot; color=&quot;#000066&quot; face=&quot;Verdana&quot;&gt;&lt;b&gt;Credit Cards&lt;br&gt;&lt;/b&gt;&lt;/font&gt;" style="text;html=1;align=left;verticalAlign=middle;whiteSpace=wrap;rounded=0;" vertex="1" parent="1">
          <mxGeometry x="40" y="400" width="480" height="40" as="geometry" />
        </mxCell>
        <mxCell id="Jn0wVcpK-2ly_PUziBu9-23" value="&lt;font size=&quot;1&quot; color=&quot;#000066&quot; face=&quot;Verdana&quot;&gt;&lt;b style=&quot;font-size: 18px;&quot;&gt;$1,234.56&lt;/b&gt;&lt;/font&gt; CAD" style="text;html=1;align=left;verticalAlign=middle;whiteSpace=wrap;rounded=0;" vertex="1" parent="1">
          <mxGeometry x="560" y="450" width="150" height="40" as="geometry" />
        </mxCell>
        <mxCell id="Jn0wVcpK-2ly_PUziBu9-27" value="" style="fillColor=#000066;strokeColor=none;rounded=1;arcSize=50;sketch=0;hachureGap=4;pointerEvents=0;fontFamily=Architects Daughter;fontSource=https%3A%2F%2Ffonts.googleapis.com%2Fcss%3Ffamily%3DArchitects%2BDaughter;fontSize=20;container=0;" vertex="1" parent="1">
          <mxGeometry x="722" y="455" width="60" height="30" as="geometry" />
        </mxCell>
        <mxCell id="Jn0wVcpK-2ly_PUziBu9-28" value="" style="shape=ellipse;strokeColor=none;fillColor=#ffffff;sketch=0;hachureGap=4;pointerEvents=0;fontFamily=Architects Daughter;fontSource=https%3A%2F%2Ffonts.googleapis.com%2Fcss%3Ffamily%3DArchitects%2BDaughter;fontSize=20;" vertex="1" parent="1">
          <mxGeometry x="755" y="459" width="22" height="22" as="geometry">
            <mxPoint x="-27" y="-11" as="offset" />
          </mxGeometry>
        </mxCell>
        <mxCell id="Jn0wVcpK-2ly_PUziBu9-29" value="" style="sketch=0;outlineConnect=0;fontColor=#232F3E;gradientColor=none;fillColor=#000066;strokeColor=none;dashed=0;verticalLabelPosition=bottom;verticalAlign=top;align=center;html=1;fontSize=12;fontStyle=0;aspect=fixed;pointerEvents=1;shape=mxgraph.aws4.gear;" vertex="1" parent="1">
          <mxGeometry x="810" y="455" width="30" height="30" as="geometry" />
        </mxCell>
        <mxCell id="Jn0wVcpK-2ly_PUziBu9-31" value="&lt;font style=&quot;font-size: 12px;&quot;&gt;Open a Bank Account&lt;/font&gt;" style="rounded=1;fillColor=#000066;align=center;strokeColor=none;html=1;whiteSpace=wrap;fontColor=#ffffff;fontSize=12;sketch=0;" vertex="1" parent="1">
          <mxGeometry x="40" y="360" width="160" height="33" as="geometry" />
        </mxCell>
        <mxCell id="Jn0wVcpK-2ly_PUziBu9-38" value="View Statements" style="rounded=1;fillColor=#000066;align=center;strokeColor=none;html=1;whiteSpace=wrap;fontColor=#ffffff;fontSize=12;sketch=0;" vertex="1" parent="1">
          <mxGeometry x="215" y="360" width="130" height="33" as="geometry" />
        </mxCell>
        <mxCell id="Jn0wVcpK-2ly_PUziBu9-40" value="&lt;font style=&quot;font-size: 12px;&quot;&gt;Open a Bank Account&lt;/font&gt;" style="rounded=1;fillColor=#000066;align=center;strokeColor=none;html=1;whiteSpace=wrap;fontColor=#ffffff;fontSize=12;sketch=0;" vertex="1" parent="1">
          <mxGeometry x="40" y="500" width="160" height="33" as="geometry" />
        </mxCell>
        <mxCell id="Jn0wVcpK-2ly_PUziBu9-41" value="View Statements" style="rounded=1;fillColor=#000066;align=center;strokeColor=none;html=1;whiteSpace=wrap;fontColor=#ffffff;fontSize=12;sketch=0;" vertex="1" parent="1">
          <mxGeometry x="215" y="500" width="130" height="33" as="geometry" />
        </mxCell>
        <mxCell id="Jn0wVcpK-2ly_PUziBu9-43" value="Card Lost ?" style="rounded=1;fillColor=#000066;align=center;strokeColor=none;html=1;whiteSpace=wrap;fontColor=#ffffff;fontSize=12;sketch=0;" vertex="1" parent="1">
          <mxGeometry x="720" y="360" width="120" height="33" as="geometry" />
        </mxCell>
        <mxCell id="Jn0wVcpK-2ly_PUziBu9-44" value="Card Lost?" style="rounded=1;fillColor=#000066;align=center;strokeColor=none;html=1;whiteSpace=wrap;fontColor=#ffffff;fontSize=12;sketch=0;" vertex="1" parent="1">
          <mxGeometry x="720" y="500" width="120" height="33" as="geometry" />
        </mxCell>
        <mxCell id="Jn0wVcpK-2ly_PUziBu9-45" value="Your Offers" style="rounded=1;fillColor=#CC0000;align=center;strokeColor=none;html=1;whiteSpace=wrap;fontColor=#ffffff;fontSize=12;sketch=0;" vertex="1" parent="1">
          <mxGeometry x="360" y="360" width="110" height="33" as="geometry" />
        </mxCell>
        <mxCell id="Jn0wVcpK-2ly_PUziBu9-46" value="Your Offers" style="rounded=1;fillColor=#CC0000;align=center;strokeColor=none;html=1;whiteSpace=wrap;fontColor=#ffffff;fontSize=12;sketch=0;" vertex="1" parent="1">
          <mxGeometry x="360" y="500" width="110" height="33" as="geometry" />
        </mxCell>
        <mxCell id="Jn0wVcpK-2ly_PUziBu9-48" value="&lt;div&gt;&lt;font size=&quot;1&quot; color=&quot;#cc0000&quot; face=&quot;Verdana&quot;&gt;&lt;b style=&quot;font-size: 14px;&quot;&gt;CA Personal Loan Plus&lt;br&gt;&lt;/b&gt;&lt;/font&gt;&lt;/div&gt;&lt;div&gt;FAPR+ 11******39, 4 years&lt;br&gt;&lt;/div&gt;" style="text;html=1;align=left;verticalAlign=middle;whiteSpace=wrap;rounded=0;strokeColor=none;dashed=1;" vertex="1" parent="1">
          <mxGeometry x="40" y="573" width="450" height="60" as="geometry" />
        </mxCell>
        <mxCell id="Jn0wVcpK-2ly_PUziBu9-49" value="&lt;font size=&quot;1&quot; color=&quot;#000066&quot; face=&quot;Verdana&quot;&gt;&lt;b style=&quot;font-size: 14px;&quot;&gt;Loans&lt;/b&gt;&lt;/font&gt;" style="text;html=1;align=left;verticalAlign=middle;whiteSpace=wrap;rounded=0;" vertex="1" parent="1">
          <mxGeometry x="40" y="533" width="480" height="40" as="geometry" />
        </mxCell>
        <mxCell id="Jn0wVcpK-2ly_PUziBu9-50" value="&lt;font size=&quot;1&quot; color=&quot;#000066&quot; face=&quot;Verdana&quot;&gt;&lt;b style=&quot;font-size: 18px;&quot;&gt;$2,345.67&lt;/b&gt;&lt;/font&gt; CAD" style="text;html=1;align=left;verticalAlign=middle;whiteSpace=wrap;rounded=0;" vertex="1" parent="1">
          <mxGeometry x="560" y="583" width="150" height="40" as="geometry" />
        </mxCell>
        <mxCell id="Jn0wVcpK-2ly_PUziBu9-51" value="" style="fillColor=#000066;strokeColor=none;rounded=1;arcSize=50;sketch=0;hachureGap=4;pointerEvents=0;fontFamily=Architects Daughter;fontSource=https%3A%2F%2Ffonts.googleapis.com%2Fcss%3Ffamily%3DArchitects%2BDaughter;fontSize=20;container=0;" vertex="1" parent="1">
          <mxGeometry x="722" y="588" width="60" height="30" as="geometry" />
        </mxCell>
        <mxCell id="Jn0wVcpK-2ly_PUziBu9-52" value="" style="shape=ellipse;strokeColor=none;fillColor=#ffffff;sketch=0;hachureGap=4;pointerEvents=0;fontFamily=Architects Daughter;fontSource=https%3A%2F%2Ffonts.googleapis.com%2Fcss%3Ffamily%3DArchitects%2BDaughter;fontSize=20;" vertex="1" parent="1">
          <mxGeometry x="755" y="592" width="22" height="22" as="geometry">
            <mxPoint x="-27" y="-11" as="offset" />
          </mxGeometry>
        </mxCell>
        <mxCell id="Jn0wVcpK-2ly_PUziBu9-53" value="" style="sketch=0;outlineConnect=0;fontColor=#232F3E;gradientColor=none;fillColor=#000066;strokeColor=none;dashed=0;verticalLabelPosition=bottom;verticalAlign=top;align=center;html=1;fontSize=12;fontStyle=0;aspect=fixed;pointerEvents=1;shape=mxgraph.aws4.gear;" vertex="1" parent="1">
          <mxGeometry x="810" y="588" width="30" height="30" as="geometry" />
        </mxCell>
        <mxCell id="Jn0wVcpK-2ly_PUziBu9-54" value="Apply for a Loan" style="rounded=1;fillColor=#000066;align=center;strokeColor=none;html=1;whiteSpace=wrap;fontColor=#ffffff;fontSize=12;sketch=0;" vertex="1" parent="1">
          <mxGeometry x="40" y="633" width="160" height="33" as="geometry" />
        </mxCell>
        <mxCell id="Jn0wVcpK-2ly_PUziBu9-55" value="View Statements" style="rounded=1;fillColor=#000066;align=center;strokeColor=none;html=1;whiteSpace=wrap;fontColor=#ffffff;fontSize=12;sketch=0;" vertex="1" parent="1">
          <mxGeometry x="215" y="633" width="130" height="33" as="geometry" />
        </mxCell>
        <mxCell id="Jn0wVcpK-2ly_PUziBu9-58" value="&lt;font color=&quot;#cc0000&quot; face=&quot;Verdana&quot;&gt;&lt;b&gt;Lock&lt;/b&gt;&lt;/font&gt;" style="text;html=1;align=left;verticalAlign=middle;whiteSpace=wrap;rounded=0;" vertex="1" parent="1">
          <mxGeometry x="745" y="200" width="40" height="40" as="geometry" />
        </mxCell>
        <mxCell id="Jn0wVcpK-2ly_PUziBu9-60" value="" style="sketch=0;pointerEvents=1;shadow=0;dashed=0;html=1;strokeColor=none;labelPosition=center;verticalLabelPosition=bottom;verticalAlign=top;outlineConnect=0;align=center;shape=mxgraph.office.security.lock_protected;fillColor=#DA4026;" vertex="1" parent="1">
          <mxGeometry x="727" y="209" width="16" height="22" as="geometry" />
        </mxCell>
        <mxCell id="Jn0wVcpK-2ly_PUziBu9-71" value="" style="shape=rect;fontSize=24;fillColor=#f0f0f0;strokeColor=none;fontColor=#999999;whiteSpace=wrap;" vertex="1" parent="1">
          <mxGeometry x="875" y="300" width="305" height="150" as="geometry" />
        </mxCell>
        <mxCell id="Jn0wVcpK-2ly_PUziBu9-72" value="&lt;font style=&quot;font-size: 14px;&quot;&gt;Chequing 01234-567***&lt;br&gt;&lt;/font&gt;" style="html=1;shadow=0;dashed=0;shape=mxgraph.bootstrap.rrect;rSize=5;strokeColor=#dddddd;;align=left;spacingLeft=10;fontSize=16;whiteSpace=wrap;rounded=0;" vertex="1" parent="1">
          <mxGeometry x="888.5" y="327.5" width="281.5" height="40" as="geometry" />
        </mxCell>
        <mxCell id="Jn0wVcpK-2ly_PUziBu9-73" value="&lt;b&gt;&lt;font style=&quot;font-size: 14px;&quot; color=&quot;#000066&quot;&gt;From&lt;/font&gt;&lt;/b&gt;" style="html=1;shadow=0;dashed=0;shape=mxgraph.bootstrap.rect;strokeColor=none;fillColor=none;fontColor=#999999;align=left;spacingLeft=5;whiteSpace=wrap;rounded=0;" vertex="1" parent="1">
          <mxGeometry x="888.5" y="300" width="160" height="27.5" as="geometry" />
        </mxCell>
        <mxCell id="Jn0wVcpK-2ly_PUziBu9-74" value="&lt;font style=&quot;font-size: 14px;&quot; color=&quot;#cc0000&quot;&gt;&lt;b&gt;To&lt;/b&gt;&lt;/font&gt;" style="html=1;shadow=0;dashed=0;shape=mxgraph.bootstrap.rect;strokeColor=none;fillColor=none;fontColor=#999999;align=left;spacingLeft=5;whiteSpace=wrap;rounded=0;" vertex="1" parent="1">
          <mxGeometry x="888.5" y="370" width="160" height="27.5" as="geometry" />
        </mxCell>
        <mxCell id="Jn0wVcpK-2ly_PUziBu9-75" value="&lt;font style=&quot;font-size: 14px;&quot; color=&quot;#000000&quot;&gt;Nick Bolton&lt;/font&gt;" style="html=1;shadow=0;dashed=0;shape=mxgraph.bootstrap.rrect;rSize=5;strokeColor=#505050;strokeWidth=1;fillColor=#ffffff;fontColor=#777777;whiteSpace=wrap;align=left;verticalAlign=middle;fontStyle=0;fontSize=14;spacingRight=0;spacing=17;" vertex="1" parent="1">
          <mxGeometry x="888.5" y="397.5" width="281.5" height="40" as="geometry" />
        </mxCell>
        <mxCell id="Jn0wVcpK-2ly_PUziBu9-76" value="" style="shape=triangle;direction=south;fillColor=#495057;strokeColor=none;perimeter=none;" vertex="1" parent="Jn0wVcpK-2ly_PUziBu9-75">
          <mxGeometry x="1" y="0.5" width="10" height="5" relative="1" as="geometry">
            <mxPoint x="-17" y="-2.5" as="offset" />
          </mxGeometry>
        </mxCell>
        <mxCell id="3d76a8aef4d5c911-13" value="Quick Transfer" style="html=1;shadow=0;dashed=0;shape=mxgraph.bootstrap.anchor;fontSize=26;align=left;whiteSpace=wrap;" parent="1" vertex="1">
          <mxGeometry x="875" y="170" width="300" height="40" as="geometry" />
        </mxCell>
        <mxCell id="3d76a8aef4d5c911-14" value="&lt;div style=&quot;font-size: 15px;&quot;&gt;&lt;font face=&quot;Tahoma&quot;&gt;· Free of charge for paying bills&lt;br&gt;· Free of charge to another CA Bank account&lt;br&gt;· $1 processing fee for in-country transfer&lt;br&gt;· $10 processing fee for international transfer&lt;/font&gt;&lt;br&gt;&lt;/div&gt;" style="html=1;shadow=0;dashed=0;shape=mxgraph.bootstrap.anchor;strokeColor=#dddddd;whiteSpace=wrap;align=left;verticalAlign=top;fontSize=14;whiteSpace=wrap;" parent="1" vertex="1">
          <mxGeometry x="872.5" y="210" width="305" height="90" as="geometry" />
        </mxCell>
        <mxCell id="Jn0wVcpK-2ly_PUziBu9-77" value="Add Payee" style="html=1;shadow=0;dashed=0;shape=mxgraph.bootstrap.rrect;rSize=5;fontSize=16;strokeColor=#dddddd;whiteSpace=wrap;" vertex="1" parent="1">
          <mxGeometry x="1072.5" y="459" width="100" height="40" as="geometry" />
        </mxCell>
        <mxCell id="Jn0wVcpK-2ly_PUziBu9-78" value="Clear" style="html=1;shadow=0;dashed=0;shape=mxgraph.bootstrap.rrect;rSize=5;fontSize=16;strokeColor=#dddddd;whiteSpace=wrap;" vertex="1" parent="1">
          <mxGeometry x="980" y="459" width="78" height="40" as="geometry" />
        </mxCell>
        <mxCell id="Jn0wVcpK-2ly_PUziBu9-79" value="Submit" style="html=1;shadow=0;dashed=0;shape=mxgraph.bootstrap.rrect;rSize=5;fontSize=16;fillColor=#000066;strokeColor=none;fontColor=#ffffff;whiteSpace=wrap;" vertex="1" parent="1">
          <mxGeometry x="876" y="459" width="90" height="40" as="geometry" />
        </mxCell>
        <mxCell id="3d76a8aef4d5c911-55" value="" style="shape=rect;fontSize=24;fillColor=#f0f0f0;strokeColor=none;fontColor=#999999;whiteSpace=wrap;" parent="1" vertex="1">
          <mxGeometry x="864" y="535" width="320" height="200" as="geometry" />
        </mxCell>
        <mxCell id="3d76a8aef4d5c911-56" value="Protecting your deposit" style="html=1;shadow=0;dashed=0;shape=mxgraph.bootstrap.anchor;fontSize=26;align=left;whiteSpace=wrap;" parent="1" vertex="1">
          <mxGeometry x="874" y="750" width="300" height="40" as="geometry" />
        </mxCell>
        <mxCell id="3d76a8aef4d5c911-57" value="&lt;div class=&quot;mt-16 typography&quot;&gt;&lt;font face=&quot;Tahoma&quot;&gt;· &lt;/font&gt;Deposits in Canadian or foreign currency (including via payroll, Interac e-transfer, or cheque)&lt;br&gt;&lt;font face=&quot;Tahoma&quot;&gt;· &lt;/font&gt;Guaranteed Investment Certificates (GICs)&lt;br&gt;&lt;font face=&quot;Tahoma&quot;&gt;· &lt;/font&gt;Other term deposits&lt;br&gt;&lt;/div&gt;" style="html=1;shadow=0;dashed=0;shape=mxgraph.bootstrap.anchor;strokeColor=#dddddd;whiteSpace=wrap;align=left;verticalAlign=top;fontSize=14;whiteSpace=wrap;" parent="1" vertex="1">
          <mxGeometry x="874" y="790" width="300" height="100" as="geometry" />
        </mxCell>
        <mxCell id="Jn0wVcpK-2ly_PUziBu9-80" value="&lt;div&gt;You currently have no mortgages&lt;br&gt;&lt;/div&gt;" style="text;html=1;align=left;verticalAlign=middle;whiteSpace=wrap;rounded=0;strokeColor=none;dashed=1;" vertex="1" parent="1">
          <mxGeometry x="40" y="706" width="450" height="60" as="geometry" />
        </mxCell>
        <mxCell id="Jn0wVcpK-2ly_PUziBu9-81" value="&lt;font size=&quot;1&quot; color=&quot;#000066&quot; face=&quot;Verdana&quot;&gt;&lt;b style=&quot;font-size: 14px;&quot;&gt;Mortgages&lt;/b&gt;&lt;/font&gt;" style="text;html=1;align=left;verticalAlign=middle;whiteSpace=wrap;rounded=0;" vertex="1" parent="1">
          <mxGeometry x="40" y="666" width="480" height="40" as="geometry" />
        </mxCell>
        <mxCell id="Jn0wVcpK-2ly_PUziBu9-86" value="Apply for Mortgage" style="rounded=1;fillColor=#000066;align=center;strokeColor=none;html=1;whiteSpace=wrap;fontColor=#ffffff;fontSize=12;sketch=0;" vertex="1" parent="1">
          <mxGeometry x="40" y="766" width="160" height="33" as="geometry" />
        </mxCell>
        <mxCell id="Jn0wVcpK-2ly_PUziBu9-89" value="" style="sketch=0;outlineConnect=0;fontColor=#232F3E;gradientColor=none;fillColor=#7AA116;strokeColor=none;dashed=0;verticalLabelPosition=bottom;verticalAlign=top;align=center;html=1;fontSize=12;fontStyle=0;aspect=fixed;pointerEvents=1;shape=mxgraph.aws4.door_lock;" vertex="1" parent="1">
          <mxGeometry x="954" y="566" width="140" height="140" as="geometry" />
        </mxCell>
        <mxCell id="Jn0wVcpK-2ly_PUziBu9-91" value="&lt;font color=&quot;#000066&quot; style=&quot;font-size: 18px;&quot; face=&quot;Verdana&quot;&gt;&lt;b&gt;Frequently Asked Questions&lt;br&gt;&lt;/b&gt;&lt;/font&gt;" style="text;html=1;align=center;verticalAlign=middle;whiteSpace=wrap;rounded=0;fillColor=#f5f5f5;strokeColor=#666666;fontColor=#333333;" vertex="1" parent="1">
          <mxGeometry x="40" y="820" width="800" height="50" as="geometry" />
        </mxCell>
        <mxCell id="Jn0wVcpK-2ly_PUziBu9-92" value="&lt;div&gt;&lt;font size=&quot;1&quot; color=&quot;#cc0000&quot; face=&quot;Verdana&quot;&gt;&lt;b style=&quot;font-size: 14px;&quot;&gt;&lt;u&gt;What are my personal interest rates?&lt;/u&gt; &lt;br&gt;&lt;/b&gt;&lt;/font&gt;&lt;/div&gt;" style="text;html=1;align=left;verticalAlign=middle;whiteSpace=wrap;rounded=0;strokeColor=none;dashed=1;" vertex="1" parent="1">
          <mxGeometry x="80" y="940" width="450" height="60" as="geometry" />
        </mxCell>
        <mxCell id="Jn0wVcpK-2ly_PUziBu9-95" value="" style="html=1;verticalLabelPosition=bottom;align=center;labelBackgroundColor=#ffffff;verticalAlign=top;strokeWidth=2;strokeColor=#000066;shadow=0;dashed=0;shape=mxgraph.ios7.icons.link;" vertex="1" parent="1">
          <mxGeometry x="40" y="955" width="30" height="30" as="geometry" />
        </mxCell>
        <mxCell id="Jn0wVcpK-2ly_PUziBu9-96" value="&lt;div&gt;&lt;font size=&quot;1&quot; color=&quot;#cc0000&quot; face=&quot;Verdana&quot;&gt;&lt;b style=&quot;font-size: 14px;&quot;&gt;&lt;u&gt;How do I open an account?&lt;/u&gt; &lt;br&gt;&lt;/b&gt;&lt;/font&gt;&lt;/div&gt;" style="text;html=1;align=left;verticalAlign=middle;whiteSpace=wrap;rounded=0;strokeColor=none;dashed=1;" vertex="1" parent="1">
          <mxGeometry x="80" y="880" width="450" height="60" as="geometry" />
        </mxCell>
        <mxCell id="Jn0wVcpK-2ly_PUziBu9-97" value="" style="html=1;verticalLabelPosition=bottom;align=center;labelBackgroundColor=#ffffff;verticalAlign=top;strokeWidth=2;strokeColor=#000066;shadow=0;dashed=0;shape=mxgraph.ios7.icons.link;" vertex="1" parent="1">
          <mxGeometry x="40" y="895" width="30" height="30" as="geometry" />
        </mxCell>
        <mxCell id="Jn0wVcpK-2ly_PUziBu9-98" value="&lt;div&gt;&lt;font size=&quot;1&quot; color=&quot;#cc0000&quot; face=&quot;Verdana&quot;&gt;&lt;b style=&quot;font-size: 14px;&quot;&gt;&lt;u&gt;How do I reset my password online?&lt;/u&gt; &lt;br&gt;&lt;/b&gt;&lt;/font&gt;&lt;/div&gt;" style="text;html=1;align=left;verticalAlign=middle;whiteSpace=wrap;rounded=0;strokeColor=none;dashed=1;" vertex="1" parent="1">
          <mxGeometry x="80" y="1000" width="450" height="60" as="geometry" />
        </mxCell>
        <mxCell id="Jn0wVcpK-2ly_PUziBu9-99" value="" style="html=1;verticalLabelPosition=bottom;align=center;labelBackgroundColor=#ffffff;verticalAlign=top;strokeWidth=2;strokeColor=#000066;shadow=0;dashed=0;shape=mxgraph.ios7.icons.link;" vertex="1" parent="1">
          <mxGeometry x="40" y="1015" width="30" height="30" as="geometry" />
        </mxCell>
        <mxCell id="Jn0wVcpK-2ly_PUziBu9-100" value="&lt;div&gt;&lt;font size=&quot;1&quot; color=&quot;#cc0000&quot; face=&quot;Verdana&quot;&gt;&lt;b style=&quot;font-size: 14px;&quot;&gt;&lt;u&gt;What is &lt;i&gt;Interact e-Transfer&lt;/i&gt;?&lt;/u&gt; &lt;br&gt;&lt;/b&gt;&lt;/font&gt;&lt;/div&gt;" style="text;html=1;align=left;verticalAlign=middle;whiteSpace=wrap;rounded=0;strokeColor=none;dashed=1;" vertex="1" parent="1">
          <mxGeometry x="80" y="1060" width="450" height="60" as="geometry" />
        </mxCell>
        <mxCell id="Jn0wVcpK-2ly_PUziBu9-101" value="" style="html=1;verticalLabelPosition=bottom;align=center;labelBackgroundColor=#ffffff;verticalAlign=top;strokeWidth=2;strokeColor=#000066;shadow=0;dashed=0;shape=mxgraph.ios7.icons.link;" vertex="1" parent="1">
          <mxGeometry x="40" y="1075" width="30" height="30" as="geometry" />
        </mxCell>
        <mxCell id="Jn0wVcpK-2ly_PUziBu9-102" value="" style="html=1;shadow=0;dashed=0;shape=mxgraph.bootstrap.rrect;rSize=5;strokeColor=#dddddd;rounded=0;fontSize=12;align=center;container=0;" vertex="1" parent="1">
          <mxGeometry x="859" y="920" width="330" height="300" as="geometry" />
        </mxCell>
        <mxCell id="Jn0wVcpK-2ly_PUziBu9-109" value="Contact US" style="html=1;shadow=0;dashed=0;shape=mxgraph.bootstrap.anchor;fontSize=26;align=left;whiteSpace=wrap;" vertex="1" parent="1">
          <mxGeometry x="874" y="940" width="300" height="40" as="geometry" />
        </mxCell>
        <mxCell id="Jn0wVcpK-2ly_PUziBu9-110" value="&lt;div style=&quot;font-size: 15px;&quot;&gt;&lt;font face=&quot;Tahoma&quot;&gt;Please feel free to ask questions&lt;/font&gt;&lt;br&gt;&lt;/div&gt;&lt;div&gt;&lt;b&gt;Tel:&lt;/b&gt; 123-456-7890&lt;/div&gt;&lt;div&gt;&lt;b&gt;Toll-free:&lt;/b&gt; 345-678-9012&lt;/div&gt;&lt;div&gt;&lt;b&gt;Customer Service Email:&lt;/b&gt; cs@cabac.com&lt;br&gt;&lt;/div&gt;" style="html=1;shadow=0;dashed=0;shape=mxgraph.bootstrap.anchor;strokeColor=#dddddd;whiteSpace=wrap;align=left;verticalAlign=top;fontSize=14;whiteSpace=wrap;" vertex="1" parent="1">
          <mxGeometry x="872.5" y="985" width="305" height="90" as="geometry" />
        </mxCell>
        <mxCell id="Jn0wVcpK-2ly_PUziBu9-112" value="Clear" style="html=1;shadow=0;dashed=0;shape=mxgraph.bootstrap.rrect;rSize=5;fontSize=16;strokeColor=#dddddd;whiteSpace=wrap;" vertex="1" parent="1">
          <mxGeometry x="1030" y="1165" width="140" height="40" as="geometry" />
        </mxCell>
        <mxCell id="Jn0wVcpK-2ly_PUziBu9-113" value="Submit" style="html=1;shadow=0;dashed=0;shape=mxgraph.bootstrap.rrect;rSize=5;fontSize=16;fillColor=#000066;strokeColor=none;fontColor=#ffffff;whiteSpace=wrap;" vertex="1" parent="1">
          <mxGeometry x="871" y="1165" width="139" height="40" as="geometry" />
        </mxCell>
        <mxCell id="Jn0wVcpK-2ly_PUziBu9-114" value="&lt;div&gt;&lt;font size=&quot;1&quot; color=&quot;#cc0000&quot; face=&quot;Verdana&quot;&gt;&lt;b style=&quot;font-size: 14px;&quot;&gt;&lt;u&gt;How do I log in to CA Bank Online?&lt;/u&gt; &lt;br&gt;&lt;/b&gt;&lt;/font&gt;&lt;/div&gt;" style="text;html=1;align=left;verticalAlign=middle;whiteSpace=wrap;rounded=0;strokeColor=none;dashed=1;" vertex="1" parent="1">
          <mxGeometry x="80" y="1120" width="450" height="60" as="geometry" />
        </mxCell>
        <mxCell id="Jn0wVcpK-2ly_PUziBu9-115" value="" style="html=1;verticalLabelPosition=bottom;align=center;labelBackgroundColor=#ffffff;verticalAlign=top;strokeWidth=2;strokeColor=#000066;shadow=0;dashed=0;shape=mxgraph.ios7.icons.link;" vertex="1" parent="1">
          <mxGeometry x="40" y="1135" width="30" height="30" as="geometry" />
        </mxCell>
        <mxCell id="Jn0wVcpK-2ly_PUziBu9-118" value="" style="shape=rect;fontSize=24;fillColor=#f0f0f0;strokeColor=none;fontColor=#999999;whiteSpace=wrap;" vertex="1" parent="1">
          <mxGeometry x="871" y="1070" width="305" height="80" as="geometry" />
        </mxCell>
        <mxCell id="Jn0wVcpK-2ly_PUziBu9-119" value="&lt;font color=&quot;#7a7a7a&quot;&gt;Ask your question&lt;br&gt;&lt;/font&gt;" style="html=1;shadow=0;dashed=0;shape=mxgraph.bootstrap.rrect;rSize=5;strokeColor=#dddddd;;align=left;spacingLeft=10;fontSize=16;whiteSpace=wrap;rounded=0;" vertex="1" parent="1">
          <mxGeometry x="884.5" y="1097.5" width="281.5" height="40" as="geometry" />
        </mxCell>
        <mxCell id="Jn0wVcpK-2ly_PUziBu9-120" value="&lt;font style=&quot;font-size: 14px;&quot; color=&quot;#000066&quot;&gt;&lt;b&gt;Ask a Question&lt;br&gt;&lt;/b&gt;&lt;/font&gt;" style="html=1;shadow=0;dashed=0;shape=mxgraph.bootstrap.rect;strokeColor=none;fillColor=none;fontColor=#999999;align=left;spacingLeft=5;whiteSpace=wrap;rounded=0;" vertex="1" parent="1">
          <mxGeometry x="884.5" y="1070" width="160" height="27.5" as="geometry" />
        </mxCell>
        <mxCell id="Jn0wVcpK-2ly_PUziBu9-122" value="&lt;div&gt;&lt;font size=&quot;1&quot; color=&quot;#cc0000&quot; face=&quot;Verdana&quot;&gt;&lt;b style=&quot;font-size: 14px;&quot;&gt;&lt;u&gt;What is the difference inbetween chequing and saving account?&lt;/u&gt; &lt;br&gt;&lt;/b&gt;&lt;/font&gt;&lt;/div&gt;" style="text;html=1;align=left;verticalAlign=middle;whiteSpace=wrap;rounded=0;strokeColor=none;dashed=1;" vertex="1" parent="1">
          <mxGeometry x="80" y="1180" width="560" height="60" as="geometry" />
        </mxCell>
        <mxCell id="Jn0wVcpK-2ly_PUziBu9-123" value="" style="html=1;verticalLabelPosition=bottom;align=center;labelBackgroundColor=#ffffff;verticalAlign=top;strokeWidth=2;strokeColor=#000066;shadow=0;dashed=0;shape=mxgraph.ios7.icons.link;" vertex="1" parent="1">
          <mxGeometry x="40" y="1195" width="30" height="30" as="geometry" />
        </mxCell>
      </root>
    </mxGraphModel>
  </diagram>
</mxfile>
